<svg width="261" height="42" viewBox="0 0 261 42" fill="none" xmlns="http://www.w3.org/2000/svg">
<path d="M22.6522 1.99543L27.5786 12.202C27.6907 12.4611 27.8669 12.6855 28.0898 12.8529C28.3127 13.0202 28.5745 13.1247 28.849 13.1559L39.7243 14.8093C40.0392 14.8509 40.3361 14.9835 40.5803 15.1917C40.8245 15.3999 41.0059 15.6751 41.1034 15.9852C41.2008 16.2953 41.2103 16.6274 41.1307 16.9428C41.0511 17.2582 40.8857 17.5438 40.6538 17.7664L32.8149 25.7472C32.6149 25.9391 32.4647 26.1792 32.3781 26.4457C32.2915 26.7123 32.2713 26.9968 32.3192 27.2735L34.2092 38.4976C34.2639 38.8201 34.2293 39.1519 34.1094 39.4552C33.9894 39.7585 33.7889 40.0212 33.5306 40.2134C33.2723 40.4055 32.9667 40.5194 32.6484 40.5421C32.3302 40.5648 32.0122 40.4954 31.7305 40.3417L21.9396 35.0318C21.6888 34.9055 21.4133 34.8398 21.134 34.8398C20.8547 34.8398 20.5791 34.9055 20.3284 35.0318L10.5375 40.3417C10.2558 40.4954 9.93774 40.5648 9.6195 40.5421C9.30127 40.5194 8.99563 40.4055 8.73736 40.2134C8.47909 40.0212 8.27856 39.7585 8.1586 39.4552C8.03863 39.1519 8.00404 38.8201 8.05876 38.4976L9.94878 27.1463C9.99668 26.8696 9.97642 26.5851 9.88984 26.3185C9.80326 26.052 9.6531 25.8119 9.45304 25.6201L1.52116 17.7664C1.28649 17.5378 1.12146 17.2442 1.04606 16.9213C0.970659 16.5984 0.988119 16.2599 1.09633 15.947C1.20453 15.6341 1.39884 15.36 1.65572 15.1581C1.9126 14.9562 2.22102 14.835 2.54363 14.8093L13.419 13.1559C13.6935 13.1247 13.9552 13.0202 14.1781 12.8529C14.401 12.6855 14.5773 12.4611 14.6893 12.202L19.6158 1.99543C19.7499 1.69816 19.9642 1.44648 20.2332 1.2701C20.5022 1.09372 20.8147 1 21.134 1C21.4532 1 21.7658 1.09372 22.0348 1.2701C22.3038 1.44648 22.518 1.69816 22.6522 1.99543Z" fill="#F7510A" stroke="#A4243B" stroke-linecap="round" stroke-linejoin="round"/>
<path d="M77.3079 1.99543L82.2344 12.202C82.3464 12.4611 82.5227 12.6855 82.7456 12.8529C82.9685 13.0202 83.2302 13.1247 83.5047 13.1559L94.3801 14.8093C94.695 14.8509 94.9919 14.9835 95.236 15.1917C95.4802 15.3999 95.6617 15.6751 95.7591 15.9852C95.8566 16.2953 95.8661 16.6274 95.7865 16.9428C95.7069 17.2582 95.5415 17.5438 95.3096 17.7664L87.4707 25.7472C87.2706 25.9391 87.1205 26.1792 87.0339 26.4457C86.9473 26.7123 86.927 26.9968 86.9749 27.2735L88.865 38.4976C88.9197 38.8201 88.8851 39.1519 88.7651 39.4552C88.6452 39.7585 88.4446 40.0212 88.1864 40.2134C87.9281 40.4055 87.6224 40.5194 87.3042 40.5421C86.986 40.5648 86.6679 40.4954 86.3862 40.3417L76.5953 35.0318C76.3446 34.9055 76.069 34.8398 75.7897 34.8398C75.5104 34.8398 75.2349 34.9055 74.9842 35.0318L65.1932 40.3417C64.9116 40.4954 64.5935 40.5648 64.2753 40.5421C63.957 40.5194 63.6514 40.4055 63.3931 40.2134C63.1348 40.0212 62.9343 39.7585 62.8144 39.4552C62.6944 39.1519 62.6598 38.8201 62.7145 38.4976L64.6045 27.1463C64.6524 26.8696 64.6322 26.5851 64.5456 26.3185C64.459 26.052 64.3089 25.8119 64.1088 25.6201L56.1769 17.7664C55.9423 17.5378 55.7772 17.2442 55.7018 16.9213C55.6264 16.5984 55.6439 16.2599 55.7521 15.947C55.8603 15.6341 56.0546 15.36 56.3115 15.1581C56.5684 14.9562 56.8768 14.835 57.1994 14.8093L68.0747 13.1559C68.3493 13.1247 68.611 13.0202 68.8339 12.8529C69.0568 12.6855 69.233 12.4611 69.3451 12.202L74.2715 1.99543C74.4057 1.69816 74.6199 1.44648 74.8889 1.2701C75.1579 1.09372 75.4705 1 75.7897 1C76.109 1 76.4215 1.09372 76.6906 1.2701C76.9596 1.44648 77.1738 1.69816 77.3079 1.99543Z" fill="#F7510A" stroke="#A4243B" stroke-linecap="round" stroke-linejoin="round"/>
<path d="M131.964 1.99543L136.89 12.202C137.002 12.4611 137.178 12.6855 137.401 12.8529C137.624 13.0202 137.886 13.1247 138.16 13.1559L149.036 14.8093C149.351 14.8509 149.648 14.9835 149.892 15.1917C150.136 15.3999 150.317 15.6751 150.415 15.9852C150.512 16.2953 150.522 16.6274 150.442 16.9428C150.363 17.2582 150.197 17.5438 149.965 17.7664L142.126 25.7472C141.926 25.9391 141.776 26.1792 141.69 26.4457C141.603 26.7123 141.583 26.9968 141.631 27.2735L143.521 38.4976C143.575 38.8201 143.541 39.1519 143.421 39.4552C143.301 39.7585 143.1 40.0212 142.842 40.2134C142.584 40.4055 142.278 40.5194 141.96 40.5421C141.642 40.5648 141.324 40.4954 141.042 40.3417L131.251 35.0318C131 34.9055 130.725 34.8398 130.446 34.8398C130.166 34.8398 129.891 34.9055 129.64 35.0318L119.849 40.3417C119.567 40.4954 119.249 40.5648 118.931 40.5421C118.613 40.5194 118.307 40.4055 118.049 40.2134C117.791 40.0212 117.59 39.7585 117.47 39.4552C117.35 39.1519 117.316 38.8201 117.37 38.4976L119.26 27.1463C119.308 26.8696 119.288 26.5851 119.201 26.3185C119.115 26.052 118.965 25.8119 118.765 25.6201L110.833 17.7664C110.598 17.5378 110.433 17.2442 110.358 16.9213C110.282 16.5984 110.3 16.2599 110.408 15.947C110.516 15.6341 110.71 15.36 110.967 15.1581C111.224 14.9562 111.533 14.835 111.855 14.8093L122.731 13.1559C123.005 13.1247 123.267 13.0202 123.49 12.8529C123.713 12.6855 123.889 12.4611 124.001 12.202L128.927 1.99543C129.061 1.69816 129.276 1.44648 129.545 1.2701C129.814 1.09372 130.126 1 130.446 1C130.765 1 131.077 1.09372 131.346 1.2701C131.615 1.44648 131.83 1.69816 131.964 1.99543Z" fill="white" stroke="#A4243B" stroke-linecap="round" stroke-linejoin="round"/>
<path d="M241.275 1.99543L246.201 12.202C246.313 12.4611 246.489 12.6855 246.712 12.8529C246.935 13.0202 247.197 13.1247 247.472 13.1559L258.347 14.8093C258.662 14.8509 258.959 14.9835 259.203 15.1917C259.447 15.3999 259.628 15.6751 259.726 15.9852C259.823 16.2953 259.833 16.6274 259.753 16.9428C259.674 17.2582 259.508 17.5438 259.276 17.7664L251.437 25.7472C251.237 25.9391 251.087 26.1792 251.001 26.4457C250.914 26.7123 250.894 26.9968 250.942 27.2735L252.832 38.4976C252.886 38.8201 252.852 39.1519 252.732 39.4552C252.612 39.7585 252.411 40.0212 252.153 40.2134C251.895 40.4055 251.589 40.5194 251.271 40.5421C250.953 40.5648 250.635 40.4954 250.353 40.3417L240.562 35.0318C240.311 34.9055 240.036 34.8398 239.757 34.8398C239.477 34.8398 239.202 34.9055 238.951 35.0318L229.16 40.3417C228.878 40.4954 228.56 40.5648 228.242 40.5421C227.924 40.5194 227.618 40.4055 227.36 40.2134C227.102 40.0212 226.901 39.7585 226.781 39.4552C226.661 39.1519 226.627 38.8201 226.681 38.4976L228.571 27.1463C228.619 26.8696 228.599 26.5851 228.512 26.3185C228.426 26.052 228.276 25.8119 228.076 25.6201L220.144 17.7664C219.909 17.5378 219.744 17.2442 219.669 16.9213C219.593 16.5984 219.611 16.2599 219.719 15.947C219.827 15.6341 220.021 15.36 220.278 15.1581C220.535 14.9562 220.844 14.835 221.166 14.8093L232.042 13.1559C232.316 13.1247 232.578 13.0202 232.801 12.8529C233.024 12.6855 233.2 12.4611 233.312 12.202L238.238 1.99543C238.372 1.69816 238.587 1.44648 238.856 1.2701C239.125 1.09372 239.437 1 239.757 1C240.076 1 240.388 1.09372 240.657 1.2701C240.926 1.44648 241.141 1.69816 241.275 1.99543Z" fill="white" stroke="#A4243B" stroke-linecap="round" stroke-linejoin="round"/>
<path d="M186.619 1.99543L191.545 12.202C191.657 12.4611 191.834 12.6855 192.057 12.8529C192.28 13.0202 192.541 13.1247 192.816 13.1559L203.691 14.8093C204.006 14.8509 204.303 14.9835 204.547 15.1917C204.791 15.3999 204.973 15.6751 205.07 15.9852C205.168 16.2953 205.177 16.6274 205.098 16.9428C205.018 17.2582 204.853 17.5438 204.621 17.7664L196.782 25.7472C196.582 25.9391 196.431 26.1792 196.345 26.4457C196.258 26.7123 196.238 26.9968 196.286 27.2735L198.176 38.4976C198.231 38.8201 198.196 39.1519 198.076 39.4552C197.956 39.7585 197.756 40.0212 197.497 40.2134C197.239 40.4055 196.933 40.5194 196.615 40.5421C196.297 40.5648 195.979 40.4954 195.697 40.3417L185.906 35.0318C185.656 34.9055 185.38 34.8398 185.101 34.8398C184.821 34.8398 184.546 34.9055 184.295 35.0318L174.504 40.3417C174.223 40.4954 173.905 40.5648 173.586 40.5421C173.268 40.5194 172.962 40.4055 172.704 40.2134C172.446 40.0212 172.245 39.7585 172.125 39.4552C172.005 39.1519 171.971 38.8201 172.026 38.4976L173.916 27.1463C173.963 26.8696 173.943 26.5851 173.857 26.3185C173.77 26.052 173.62 25.8119 173.42 25.6201L165.488 17.7664C165.253 17.5378 165.088 17.2442 165.013 16.9213C164.937 16.5984 164.955 16.2599 165.063 15.947C165.171 15.6341 165.366 15.36 165.623 15.1581C165.879 14.9562 166.188 14.835 166.51 14.8093L177.386 13.1559C177.66 13.1247 177.922 13.0202 178.145 12.8529C178.368 12.6855 178.544 12.4611 178.656 12.202L183.583 1.99543C183.717 1.69816 183.931 1.44648 184.2 1.2701C184.469 1.09372 184.782 1 185.101 1C185.42 1 185.733 1.09372 186.002 1.2701C186.271 1.44648 186.485 1.69816 186.619 1.99543Z" fill="white" stroke="#A4243B" stroke-linecap="round" stroke-linejoin="round"/>
</svg>
