<svg width="260" height="40" viewBox="0 0 260 40" fill="none" xmlns="http://www.w3.org/2000/svg">
<path d="M22.2069 1.95758L27.1333 11.8162C27.2454 12.0664 27.4216 12.2832 27.6445 12.4448C27.8674 12.6065 28.1291 12.7074 28.4037 12.7375L39.279 14.3346C39.5939 14.3747 39.8908 14.5028 40.135 14.7039C40.3792 14.905 40.5606 15.1709 40.6581 15.4703C40.7555 15.7698 40.765 16.0907 40.6854 16.3953C40.6058 16.6999 40.4404 16.9759 40.2085 17.1908L32.3696 24.8996C32.1695 25.0848 32.0194 25.3168 31.9328 25.5742C31.8462 25.8317 31.826 26.1065 31.8739 26.3737L33.7639 37.2151C33.8186 37.5266 33.784 37.8471 33.664 38.1401C33.5441 38.4331 33.3436 38.6869 33.0853 38.8725C32.827 39.0581 32.5214 39.1681 32.2031 39.19C31.8849 39.2119 31.5668 39.1448 31.2852 38.9964L21.4942 33.8675C21.2435 33.7455 20.968 33.6821 20.6887 33.6821C20.4094 33.6821 20.1338 33.7455 19.8831 33.8675L10.0922 38.9964C9.81048 39.1448 9.49243 39.2119 9.17419 39.19C8.85595 39.1681 8.55031 39.0581 8.29204 38.8725C8.03377 38.6869 7.83325 38.4331 7.71328 38.1401C7.59332 37.8471 7.55873 37.5266 7.61345 37.2151L9.50347 26.2509C9.55137 25.9837 9.53111 25.7088 9.44453 25.4514C9.35794 25.1939 9.20779 24.962 9.00773 24.7767L1.07584 17.1908C0.841179 16.97 0.67615 16.6864 0.600749 16.3745C0.525347 16.0626 0.542807 15.7357 0.651014 15.4335C0.759221 15.1312 0.953532 14.8665 1.21041 14.6715C1.46729 14.4764 1.77571 14.3594 2.09831 14.3346L12.9737 12.7375C13.2482 12.7074 13.5099 12.6065 13.7328 12.4448C13.9557 12.2832 14.132 12.0664 14.244 11.8162L19.1705 1.95758C19.3046 1.67045 19.5188 1.42735 19.7879 1.25699C20.0569 1.08662 20.3694 0.996094 20.6887 0.996094C21.0079 0.996094 21.3205 1.08662 21.5895 1.25699C21.8585 1.42735 22.0727 1.67045 22.2069 1.95758Z" fill="#F7510A" stroke="#A4243B" stroke-linecap="round" stroke-linejoin="round"/>
<path d="M76.8626 1.95758L81.7891 11.8162C81.9011 12.0664 82.0774 12.2832 82.3003 12.4448C82.5232 12.6065 82.7849 12.7074 83.0594 12.7375L93.9348 14.3346C94.2497 14.3747 94.5465 14.5028 94.7907 14.7039C95.0349 14.905 95.2163 15.1709 95.3138 15.4703C95.4113 15.7698 95.4208 16.0907 95.3412 16.3953C95.2616 16.6999 95.0962 16.9759 94.8643 17.1908L87.0254 24.8996C86.8253 25.0848 86.6751 25.3168 86.5886 25.5742C86.502 25.8317 86.4817 26.1065 86.5296 26.3737L88.4196 37.2151C88.4744 37.5266 88.4398 37.8471 88.3198 38.1401C88.1998 38.4331 87.9993 38.6869 87.741 38.8725C87.4828 39.0581 87.1771 39.1681 86.8589 39.19C86.5407 39.2119 86.2226 39.1448 85.9409 38.9964L76.15 33.8675C75.8993 33.7455 75.6237 33.6821 75.3444 33.6821C75.0651 33.6821 74.7896 33.7455 74.5388 33.8675L64.7479 38.9964C64.4662 39.1448 64.1482 39.2119 63.83 39.19C63.5117 39.1681 63.2061 39.0581 62.9478 38.8725C62.6895 38.6869 62.489 38.4331 62.369 38.1401C62.2491 37.8471 62.2145 37.5266 62.2692 37.2151L64.1592 26.2509C64.2071 25.9837 64.1869 25.7088 64.1003 25.4514C64.0137 25.1939 63.8636 24.962 63.6635 24.7767L55.7316 17.1908C55.4969 16.97 55.3319 16.6864 55.2565 16.3745C55.1811 16.0626 55.1986 15.7357 55.3068 15.4335C55.415 15.1312 55.6093 14.8665 55.8662 14.6715C56.123 14.4764 56.4315 14.3594 56.7541 14.3346L67.6294 12.7375C67.9039 12.7074 68.1657 12.6065 68.3886 12.4448C68.6115 12.2832 68.7877 12.0664 68.8998 11.8162L73.8262 1.95758C73.9604 1.67045 74.1746 1.42735 74.4436 1.25699C74.7126 1.08662 75.0252 0.996094 75.3444 0.996094C75.6637 0.996094 75.9762 1.08662 76.2452 1.25699C76.5143 1.42735 76.7285 1.67045 76.8626 1.95758Z" fill="#F7510A" stroke="#A4243B" stroke-linecap="round" stroke-linejoin="round"/>
<path d="M131.518 1.95758L136.445 11.8162C136.557 12.0664 136.733 12.2832 136.956 12.4448C137.179 12.6065 137.441 12.7074 137.715 12.7375L148.591 14.3346C148.905 14.3747 149.202 14.5028 149.446 14.7039C149.691 14.905 149.872 15.1709 149.97 15.4703C150.067 15.7698 150.077 16.0907 149.997 16.3953C149.917 16.6999 149.752 16.9759 149.52 17.1908L141.681 24.8996C141.481 25.0848 141.331 25.3168 141.244 25.5742C141.158 25.8317 141.137 26.1065 141.185 26.3737L143.075 37.2151C143.13 37.5266 143.096 37.8471 142.976 38.1401C142.856 38.4331 142.655 38.6869 142.397 38.8725C142.139 39.0581 141.833 39.1681 141.515 39.19C141.196 39.2119 140.878 39.1448 140.597 38.9964L130.806 33.8675C130.555 33.7455 130.279 33.6821 130 33.6821C129.721 33.6821 129.445 33.7455 129.195 33.8675L119.404 38.9964C119.122 39.1448 118.804 39.2119 118.486 39.19C118.167 39.1681 117.862 39.0581 117.604 38.8725C117.345 38.6869 117.145 38.4331 117.025 38.1401C116.905 37.8471 116.87 37.5266 116.925 37.2151L118.815 26.2509C118.863 25.9837 118.843 25.7088 118.756 25.4514C118.669 25.1939 118.519 24.962 118.319 24.7767L110.387 17.1908C110.153 16.97 109.988 16.6864 109.912 16.3745C109.837 16.0626 109.854 15.7357 109.963 15.4335C110.071 15.1312 110.265 14.8665 110.522 14.6715C110.779 14.4764 111.087 14.3594 111.41 14.3346L122.285 12.7375C122.56 12.7074 122.821 12.6065 123.044 12.4448C123.267 12.2832 123.443 12.0664 123.556 11.8162L128.482 1.95758C128.616 1.67045 128.83 1.42735 129.099 1.25699C129.368 1.08662 129.681 0.996094 130 0.996094C130.319 0.996094 130.632 1.08662 130.901 1.25699C131.17 1.42735 131.384 1.67045 131.518 1.95758Z" fill="#F7510A" stroke="#A4243B" stroke-linecap="round" stroke-linejoin="round"/>
<path d="M240.829 1.95758L245.756 11.8162C245.868 12.0664 246.044 12.2832 246.267 12.4448C246.49 12.6065 246.752 12.7074 247.026 12.7375L257.902 14.3346C258.216 14.3747 258.513 14.5028 258.758 14.7039C259.002 14.905 259.183 15.1709 259.281 15.4703C259.378 15.7698 259.388 16.0907 259.308 16.3953C259.228 16.6999 259.063 16.9759 258.831 17.1908L250.992 24.8996C250.792 25.0848 250.642 25.3168 250.555 25.5742C250.469 25.8317 250.449 26.1065 250.496 26.3737L252.386 37.2151C252.441 37.5266 252.407 37.8471 252.287 38.1401C252.167 38.4331 251.966 38.6869 251.708 38.8725C251.45 39.0581 251.144 39.1681 250.826 39.19C250.507 39.2119 250.189 39.1448 249.908 38.9964L240.117 33.8675C239.866 33.7455 239.591 33.6821 239.311 33.6821C239.032 33.6821 238.756 33.7455 238.506 33.8675L228.715 38.9964C228.433 39.1448 228.115 39.2119 227.797 39.19C227.479 39.1681 227.173 39.0581 226.915 38.8725C226.656 38.6869 226.456 38.4331 226.336 38.1401C226.216 37.8471 226.181 37.5266 226.236 37.2151L228.126 26.2509C228.174 25.9837 228.154 25.7088 228.067 25.4514C227.981 25.1939 227.83 24.962 227.63 24.7767L219.698 17.1908C219.464 16.97 219.299 16.6864 219.223 16.3745C219.148 16.0626 219.165 15.7357 219.274 15.4335C219.382 15.1312 219.576 14.8665 219.833 14.6715C220.09 14.4764 220.398 14.3594 220.721 14.3346L231.596 12.7375C231.871 12.7074 232.132 12.6065 232.355 12.4448C232.578 12.2832 232.755 12.0664 232.867 11.8162L237.793 1.95758C237.927 1.67045 238.141 1.42735 238.41 1.25699C238.679 1.08662 238.992 0.996094 239.311 0.996094C239.63 0.996094 239.943 1.08662 240.212 1.25699C240.481 1.42735 240.695 1.67045 240.829 1.95758Z" fill="#F7510A" stroke="#A4243B" stroke-linecap="round" stroke-linejoin="round"/>
<path d="M186.174 1.95758L191.1 11.8162C191.212 12.0664 191.388 12.2832 191.611 12.4448C191.834 12.6065 192.096 12.7074 192.37 12.7375L203.246 14.3346C203.561 14.3747 203.858 14.5028 204.102 14.7039C204.346 14.905 204.527 15.1709 204.625 15.4703C204.722 15.7698 204.732 16.0907 204.652 16.3953C204.573 16.6999 204.407 16.9759 204.175 17.1908L196.336 24.8996C196.136 25.0848 195.986 25.3168 195.9 25.5742C195.813 25.8317 195.793 26.1065 195.841 26.3737L197.731 37.2151C197.785 37.5266 197.751 37.8471 197.631 38.1401C197.511 38.4331 197.31 38.6869 197.052 38.8725C196.794 39.0581 196.488 39.1681 196.17 39.19C195.852 39.2119 195.534 39.1448 195.252 38.9964L185.461 33.8675C185.21 33.7455 184.935 33.6821 184.655 33.6821C184.376 33.6821 184.101 33.7455 183.85 33.8675L174.059 38.9964C173.777 39.1448 173.459 39.2119 173.141 39.19C172.823 39.1681 172.517 39.0581 172.259 38.8725C172.001 38.6869 171.8 38.4331 171.68 38.1401C171.56 37.8471 171.526 37.5266 171.58 37.2151L173.47 26.2509C173.518 25.9837 173.498 25.7088 173.411 25.4514C173.325 25.1939 173.175 24.962 172.975 24.7767L165.043 17.1908C164.808 16.97 164.643 16.6864 164.568 16.3745C164.492 16.0626 164.51 15.7357 164.618 15.4335C164.726 15.1312 164.92 14.8665 165.177 14.6715C165.434 14.4764 165.743 14.3594 166.065 14.3346L176.94 12.7375C177.215 12.7074 177.477 12.6065 177.7 12.4448C177.923 12.2832 178.099 12.0664 178.211 11.8162L183.137 1.95758C183.271 1.67045 183.486 1.42735 183.755 1.25699C184.024 1.08662 184.336 0.996094 184.655 0.996094C184.975 0.996094 185.287 1.08662 185.556 1.25699C185.825 1.42735 186.04 1.67045 186.174 1.95758Z" fill="#F7510A" stroke="#A4243B" stroke-linecap="round" stroke-linejoin="round"/>
</svg>
