<svg width="261" height="45" viewBox="0 0 261 45" fill="none" xmlns="http://www.w3.org/2000/svg">
<path d="M22.6522 2.07111L27.5786 13.0537C27.6907 13.3324 27.8669 13.5739 28.0898 13.754C28.3127 13.9341 28.5745 14.0465 28.849 14.0801L39.7243 15.8592C40.0392 15.9039 40.3361 16.0466 40.5803 16.2706C40.8245 16.4947 41.0059 16.7908 41.1034 17.1245C41.2008 17.4581 41.2103 17.8155 41.1307 18.1549C41.0511 18.4943 40.8857 18.8016 40.6538 19.0411L32.8149 27.6287C32.6149 27.8351 32.4647 28.0935 32.3781 28.3803C32.2915 28.6671 32.2713 28.9733 32.3192 29.271L34.2092 41.3484C34.2639 41.6954 34.2293 42.0524 34.1094 42.3788C33.9894 42.7052 33.7889 42.9879 33.5306 43.1947C33.2723 43.4014 32.9667 43.524 32.6484 43.5484C32.3302 43.5728 32.0122 43.4981 31.7305 43.3328L21.9396 37.6191C21.6888 37.4832 21.4133 37.4125 21.134 37.4125C20.8547 37.4125 20.5791 37.4832 20.3284 37.6191L10.5375 43.3328C10.2558 43.4981 9.93774 43.5728 9.6195 43.5484C9.30127 43.524 8.99563 43.4014 8.73736 43.1947C8.47909 42.9879 8.27856 42.7052 8.1586 42.3788C8.03863 42.0524 8.00404 41.6954 8.05876 41.3484L9.94878 29.1341C9.99668 28.8364 9.97642 28.5303 9.88984 28.2434C9.80326 27.9566 9.6531 27.6982 9.45304 27.4918L1.52116 19.0411C1.28649 18.7951 1.12146 18.4792 1.04606 18.1317C0.970659 17.7843 0.988119 17.4201 1.09633 17.0834C1.20453 16.7466 1.39884 16.4518 1.65572 16.2345C1.9126 16.0172 2.22102 15.8869 2.54363 15.8592L13.419 14.0801C13.6935 14.0465 13.9552 13.9341 14.1781 13.754C14.401 13.5739 14.5773 13.3324 14.6893 13.0537L19.6158 2.07111C19.7499 1.75124 19.9642 1.48043 20.2332 1.29064C20.5022 1.10085 20.8147 1 21.134 1C21.4532 1 21.7658 1.10085 22.0348 1.29064C22.3038 1.48043 22.518 1.75124 22.6522 2.07111Z" fill="#F7510A" stroke="#A4243B" stroke-linecap="round" stroke-linejoin="round"/>
<path d="M77.3079 2.07111L82.2344 13.0537C82.3464 13.3324 82.5227 13.5739 82.7456 13.754C82.9685 13.9341 83.2302 14.0465 83.5047 14.0801L94.3801 15.8592C94.695 15.9039 94.9919 16.0466 95.236 16.2706C95.4802 16.4947 95.6617 16.7908 95.7591 17.1245C95.8566 17.4581 95.8661 17.8155 95.7865 18.1549C95.7069 18.4943 95.5415 18.8016 95.3096 19.0411L87.4707 27.6287C87.2706 27.8351 87.1205 28.0935 87.0339 28.3803C86.9473 28.6671 86.927 28.9733 86.9749 29.271L88.865 41.3484C88.9197 41.6954 88.8851 42.0524 88.7651 42.3788C88.6452 42.7052 88.4446 42.9879 88.1864 43.1947C87.9281 43.4014 87.6224 43.524 87.3042 43.5484C86.986 43.5728 86.6679 43.4981 86.3862 43.3328L76.5953 37.6191C76.3446 37.4832 76.069 37.4125 75.7897 37.4125C75.5104 37.4125 75.2349 37.4832 74.9842 37.6191L65.1932 43.3328C64.9116 43.4981 64.5935 43.5728 64.2753 43.5484C63.957 43.524 63.6514 43.4014 63.3931 43.1947C63.1348 42.9879 62.9343 42.7052 62.8144 42.3788C62.6944 42.0524 62.6598 41.6954 62.7145 41.3484L64.6045 29.1341C64.6524 28.8364 64.6322 28.5303 64.5456 28.2434C64.459 27.9566 64.3089 27.6982 64.1088 27.4918L56.1769 19.0411C55.9423 18.7951 55.7772 18.4792 55.7018 18.1317C55.6264 17.7843 55.6439 17.4201 55.7521 17.0834C55.8603 16.7466 56.0546 16.4518 56.3115 16.2345C56.5684 16.0172 56.8768 15.8869 57.1994 15.8592L68.0747 14.0801C68.3493 14.0465 68.611 13.9341 68.8339 13.754C69.0568 13.5739 69.233 13.3324 69.3451 13.0537L74.2715 2.07111C74.4057 1.75124 74.6199 1.48043 74.8889 1.29064C75.1579 1.10085 75.4705 1 75.7897 1C76.109 1 76.4215 1.10085 76.6906 1.29064C76.9596 1.48043 77.1738 1.75124 77.3079 2.07111Z" fill="#F7510A" stroke="#A4243B" stroke-linecap="round" stroke-linejoin="round"/>
<path d="M131.964 2.07111L136.89 13.0537C137.002 13.3324 137.178 13.5739 137.401 13.754C137.624 13.9341 137.886 14.0465 138.16 14.0801L149.036 15.8592C149.351 15.9039 149.648 16.0466 149.892 16.2706C150.136 16.4947 150.317 16.7908 150.415 17.1245C150.512 17.4581 150.522 17.8155 150.442 18.1549C150.363 18.4943 150.197 18.8016 149.965 19.0411L142.126 27.6287C141.926 27.8351 141.776 28.0935 141.69 28.3803C141.603 28.6671 141.583 28.9733 141.631 29.271L143.521 41.3484C143.575 41.6954 143.541 42.0524 143.421 42.3788C143.301 42.7052 143.1 42.9879 142.842 43.1947C142.584 43.4014 142.278 43.524 141.96 43.5484C141.642 43.5728 141.324 43.4981 141.042 43.3328L131.251 37.6191C131 37.4832 130.725 37.4125 130.446 37.4125C130.166 37.4125 129.891 37.4832 129.64 37.6191L119.849 43.3328C119.567 43.4981 119.249 43.5728 118.931 43.5484C118.613 43.524 118.307 43.4014 118.049 43.1947C117.791 42.9879 117.59 42.7052 117.47 42.3788C117.35 42.0524 117.316 41.6954 117.37 41.3484L119.26 29.1341C119.308 28.8364 119.288 28.5303 119.201 28.2434C119.115 27.9566 118.965 27.6982 118.765 27.4918L110.833 19.0411C110.598 18.7951 110.433 18.4792 110.358 18.1317C110.282 17.7843 110.3 17.4201 110.408 17.0834C110.516 16.7466 110.71 16.4518 110.967 16.2345C111.224 16.0172 111.533 15.8869 111.855 15.8592L122.731 14.0801C123.005 14.0465 123.267 13.9341 123.49 13.754C123.713 13.5739 123.889 13.3324 124.001 13.0537L128.927 2.07111C129.061 1.75124 129.276 1.48043 129.545 1.29064C129.814 1.10085 130.126 1 130.446 1C130.765 1 131.077 1.10085 131.346 1.29064C131.615 1.48043 131.83 1.75124 131.964 2.07111Z" fill="white" stroke="#A4243B" stroke-linecap="round" stroke-linejoin="round"/>
<path d="M241.275 2.07111L246.201 13.0537C246.313 13.3324 246.489 13.5739 246.712 13.754C246.935 13.9341 247.197 14.0465 247.472 14.0801L258.347 15.8592C258.662 15.9039 258.959 16.0466 259.203 16.2706C259.447 16.4947 259.628 16.7908 259.726 17.1245C259.823 17.4581 259.833 17.8155 259.753 18.1549C259.674 18.4943 259.508 18.8016 259.276 19.0411L251.437 27.6287C251.237 27.8351 251.087 28.0935 251.001 28.3803C250.914 28.6671 250.894 28.9733 250.942 29.271L252.832 41.3484C252.886 41.6954 252.852 42.0524 252.732 42.3788C252.612 42.7052 252.411 42.9879 252.153 43.1947C251.895 43.4014 251.589 43.524 251.271 43.5484C250.953 43.5728 250.635 43.4981 250.353 43.3328L240.562 37.6191C240.311 37.4832 240.036 37.4125 239.757 37.4125C239.477 37.4125 239.202 37.4832 238.951 37.6191L229.16 43.3328C228.878 43.4981 228.56 43.5728 228.242 43.5484C227.924 43.524 227.618 43.4014 227.36 43.1947C227.102 42.9879 226.901 42.7052 226.781 42.3788C226.661 42.0524 226.627 41.6954 226.681 41.3484L228.571 29.1341C228.619 28.8364 228.599 28.5303 228.512 28.2434C228.426 27.9566 228.276 27.6982 228.076 27.4918L220.144 19.0411C219.909 18.7951 219.744 18.4792 219.669 18.1317C219.593 17.7843 219.611 17.4201 219.719 17.0834C219.827 16.7466 220.021 16.4518 220.278 16.2345C220.535 16.0172 220.844 15.8869 221.166 15.8592L232.042 14.0801C232.316 14.0465 232.578 13.9341 232.801 13.754C233.024 13.5739 233.2 13.3324 233.312 13.0537L238.238 2.07111C238.372 1.75124 238.587 1.48043 238.856 1.29064C239.125 1.10085 239.437 1 239.757 1C240.076 1 240.388 1.10085 240.657 1.29064C240.926 1.48043 241.141 1.75124 241.275 2.07111Z" fill="white" stroke="#A4243B" stroke-linecap="round" stroke-linejoin="round"/>
<path d="M186.619 2.07111L191.545 13.0537C191.657 13.3324 191.834 13.5739 192.057 13.754C192.28 13.9341 192.541 14.0465 192.816 14.0801L203.691 15.8592C204.006 15.9039 204.303 16.0466 204.547 16.2706C204.791 16.4947 204.973 16.7908 205.07 17.1245C205.168 17.4581 205.177 17.8155 205.098 18.1549C205.018 18.4943 204.853 18.8016 204.621 19.0411L196.782 27.6287C196.582 27.8351 196.431 28.0935 196.345 28.3803C196.258 28.6671 196.238 28.9733 196.286 29.271L198.176 41.3484C198.231 41.6954 198.196 42.0524 198.076 42.3788C197.956 42.7052 197.756 42.9879 197.497 43.1947C197.239 43.4014 196.933 43.524 196.615 43.5484C196.297 43.5728 195.979 43.4981 195.697 43.3328L185.906 37.6191C185.656 37.4832 185.38 37.4125 185.101 37.4125C184.821 37.4125 184.546 37.4832 184.295 37.6191L174.504 43.3328C174.223 43.4981 173.905 43.5728 173.586 43.5484C173.268 43.524 172.962 43.4014 172.704 43.1947C172.446 42.9879 172.245 42.7052 172.125 42.3788C172.005 42.0524 171.971 41.6954 172.026 41.3484L173.916 29.1341C173.963 28.8364 173.943 28.5303 173.857 28.2434C173.77 27.9566 173.62 27.6982 173.42 27.4918L165.488 19.0411C165.253 18.7951 165.088 18.4792 165.013 18.1317C164.937 17.7843 164.955 17.4201 165.063 17.0834C165.171 16.7466 165.366 16.4518 165.623 16.2345C165.879 16.0172 166.188 15.8869 166.51 15.8592L177.386 14.0801C177.66 14.0465 177.922 13.9341 178.145 13.754C178.368 13.5739 178.544 13.3324 178.656 13.0537L183.583 2.07111C183.717 1.75124 183.931 1.48043 184.2 1.29064C184.469 1.10085 184.782 1 185.101 1C185.42 1 185.733 1.10085 186.002 1.29064C186.271 1.48043 186.485 1.75124 186.619 2.07111Z" fill="white" stroke="#A4243B" stroke-linecap="round" stroke-linejoin="round"/>
</svg>
