<svg width="34" height="24" viewBox="0 0 34 24" fill="none" xmlns="http://www.w3.org/2000/svg">
<path d="M15.5834 2C22.6214 2 28.3334 6.032 28.3334 11C28.3334 15.968 22.6214 20 15.5834 20C8.54537 20 2.83337 15.968 2.83337 11C2.83337 6.032 8.54537 2 15.5834 2ZM15.5834 18C21.0616 18 25.5 14.867 25.5 11C25.5 7.133 21.0616 4 15.5834 4C10.1051 4 5.66671 7.133 5.66671 11C5.66671 14.867 10.1051 18 15.5834 18ZM27.6038 18.071L31.6115 20.899L29.607 22.314L25.6006 19.485L27.6038 18.071Z" fill="black"/>
</svg>
