<svg width="40" height="26" viewBox="0 0 40 26" fill="none" xmlns="http://www.w3.org/2000/svg">
<path d="M18.6543 2.34921C26.7321 2.34921 33.2881 6.50921 33.2881 11.6349C33.2881 16.7606 26.7321 20.9206 18.6543 20.9206C10.5765 20.9206 4.02056 16.7606 4.02056 11.6349C4.02056 6.50921 10.5765 2.34921 18.6543 2.34921ZM18.6543 18.8571C24.9419 18.8571 30.0361 15.6247 30.0361 11.6349C30.0361 7.64516 24.9419 4.4127 18.6543 4.4127C12.3667 4.4127 7.27251 7.64516 7.27251 11.6349C7.27251 15.6247 12.3667 18.8571 18.6543 18.8571ZM32.4507 18.9304L37.0506 21.8482L34.7498 23.3081L30.1516 20.3893L32.4507 18.9304Z" fill="black"/>
</svg>
