<svg width="32" height="25" viewBox="0 0 32 25" fill="none" xmlns="http://www.w3.org/2000/svg">
<path d="M14.8861 2.12698C21.2046 2.12698 26.3327 6.28698 26.3327 11.4127C26.3327 16.5384 21.2046 20.6984 14.8861 20.6984C8.56755 20.6984 3.43945 16.5384 3.43945 11.4127C3.43945 6.28698 8.56755 2.12698 14.8861 2.12698ZM14.8861 18.6349C19.8043 18.6349 23.789 15.4025 23.789 11.4127C23.789 7.42294 19.8043 4.19048 14.8861 4.19048C9.96785 4.19048 5.98315 7.42294 5.98315 11.4127C5.98315 15.4025 9.96785 18.6349 14.8861 18.6349ZM25.6777 18.7082L29.2758 21.626L27.4761 23.0859L23.8793 20.1671L25.6777 18.7082Z" fill="black"/>
</svg>
