<svg width="42" height="42" viewBox="0 0 42 42" fill="none" xmlns="http://www.w3.org/2000/svg">
<path d="M22.619 1.99543L27.5454 12.202C27.6575 12.4611 27.8337 12.6855 28.0566 12.8529C28.2795 13.0202 28.5413 13.1247 28.8158 13.1559L39.6911 14.8093C40.006 14.8509 40.3029 14.9835 40.5471 15.1917C40.7913 15.3999 40.9727 15.6751 41.0702 15.9852C41.1676 16.2953 41.1771 16.6274 41.0975 16.9428C41.0179 17.2582 40.8525 17.5438 40.6206 17.7664L32.7817 25.7472C32.5816 25.9391 32.4315 26.1792 32.3449 26.4457C32.2583 26.7123 32.2381 26.9968 32.286 27.2735L34.176 38.4976C34.2307 38.8201 34.1961 39.1519 34.0762 39.4552C33.9562 39.7585 33.7557 40.0212 33.4974 40.2134C33.2391 40.4055 32.9335 40.5194 32.6152 40.5421C32.297 40.5648 31.979 40.4954 31.6973 40.3417L21.9064 35.0318C21.6556 34.9055 21.3801 34.8398 21.1008 34.8398C20.8215 34.8398 20.5459 34.9055 20.2952 35.0318L10.5043 40.3417C10.2226 40.4954 9.90454 40.5648 9.5863 40.5421C9.26806 40.5194 8.96242 40.4055 8.70415 40.2134C8.44588 40.0212 8.24536 39.7585 8.12539 39.4552C8.00543 39.1519 7.97084 38.8201 8.02556 38.4976L9.91558 27.1463C9.96348 26.8696 9.94322 26.5851 9.85664 26.3185C9.77005 26.052 9.6199 25.8119 9.41984 25.6201L1.48795 17.7664C1.25329 17.5378 1.08826 17.2442 1.01286 16.9213C0.937456 16.5984 0.954916 16.2599 1.06312 15.947C1.17133 15.6341 1.36564 15.36 1.62252 15.1581C1.8794 14.9562 2.18782 14.835 2.51042 14.8093L13.3858 13.1559C13.6603 13.1247 13.922 13.0202 14.1449 12.8529C14.3678 12.6855 14.5441 12.4611 14.6561 12.202L19.5826 1.99543C19.7167 1.69816 19.9309 1.44648 20.2 1.2701C20.469 1.09372 20.7815 1 21.1008 1C21.42 1 21.7326 1.09372 22.0016 1.2701C22.2706 1.44648 22.4848 1.69816 22.619 1.99543Z" fill="#F7510A" stroke="#A4243B" stroke-linecap="round" stroke-linejoin="round"/>
</svg>
