<svg width="42" height="42" viewBox="0 0 42 42" fill="none" xmlns="http://www.w3.org/2000/svg">
<path d="M22.6522 1.99543L27.5786 12.202C27.6907 12.4611 27.8669 12.6855 28.0898 12.8529C28.3127 13.0202 28.5745 13.1247 28.849 13.1559L39.7243 14.8093C40.0392 14.8509 40.3361 14.9835 40.5803 15.1917C40.8245 15.3999 41.0059 15.6751 41.1034 15.9852C41.2008 16.2953 41.2103 16.6274 41.1307 16.9428C41.0511 17.2582 40.8857 17.5438 40.6538 17.7664L32.8149 25.7472C32.6149 25.9391 32.4647 26.1792 32.3781 26.4457C32.2915 26.7123 32.2713 26.9968 32.3192 27.2735L34.2092 38.4976C34.2639 38.8201 34.2293 39.1519 34.1094 39.4552C33.9894 39.7585 33.7889 40.0212 33.5306 40.2134C33.2723 40.4055 32.9667 40.5194 32.6484 40.5421C32.3302 40.5648 32.0122 40.4954 31.7305 40.3417L21.9396 35.0318C21.6888 34.9055 21.4133 34.8398 21.134 34.8398C20.8547 34.8398 20.5791 34.9055 20.3284 35.0318L10.5375 40.3417C10.2558 40.4954 9.93774 40.5648 9.6195 40.5421C9.30127 40.5194 8.99563 40.4055 8.73736 40.2134C8.47909 40.0212 8.27856 39.7585 8.1586 39.4552C8.03863 39.1519 8.00404 38.8201 8.05876 38.4976L9.94878 27.1463C9.99668 26.8696 9.97642 26.5851 9.88984 26.3185C9.80326 26.052 9.6531 25.8119 9.45304 25.6201L1.52116 17.7664C1.28649 17.5378 1.12146 17.2442 1.04606 16.9213C0.970659 16.5984 0.988119 16.2599 1.09633 15.947C1.20453 15.6341 1.39884 15.36 1.65572 15.1581C1.9126 14.9562 2.22102 14.835 2.54363 14.8093L13.419 13.1559C13.6935 13.1247 13.9552 13.0202 14.1781 12.8529C14.401 12.6855 14.5773 12.4611 14.6893 12.202L19.6158 1.99543C19.7499 1.69816 19.9642 1.44648 20.2332 1.2701C20.5022 1.09372 20.8147 1 21.134 1C21.4532 1 21.7658 1.09372 22.0348 1.2701C22.3038 1.44648 22.518 1.69816 22.6522 1.99543Z" fill="#F7510A" stroke="#A4243B" stroke-linecap="round" stroke-linejoin="round"/>
</svg>
