<svg width="42" height="42" viewBox="0 0 42 42" fill="none" xmlns="http://www.w3.org/2000/svg">
<path d="M22.9637 1.99543L27.8902 12.202C28.0022 12.4611 28.1785 12.6855 28.4013 12.8529C28.6242 13.0202 28.886 13.1247 29.1605 13.1559L40.0359 14.8093C40.3507 14.8509 40.6476 14.9835 40.8918 15.1917C41.136 15.3999 41.3174 15.6751 41.4149 15.9852C41.5124 16.2953 41.5218 16.6274 41.4422 16.9428C41.3626 17.2582 41.1973 17.5438 40.9654 17.7664L33.1264 25.7472C32.9264 25.9391 32.7762 26.1792 32.6896 26.4457C32.6031 26.7123 32.5828 26.9968 32.6307 27.2735L34.5207 38.4976C34.5754 38.8201 34.5408 39.1519 34.4209 39.4552C34.3009 39.7585 34.1004 40.0212 33.8421 40.2134C33.5839 40.4055 33.2782 40.5194 32.96 40.5421C32.6417 40.5648 32.3237 40.4954 32.042 40.3417L22.2511 35.0318C22.0004 34.9055 21.7248 34.8398 21.4455 34.8398C21.1662 34.8398 20.8906 34.9055 20.6399 35.0318L10.849 40.3417C10.5673 40.4954 10.2493 40.5648 9.93103 40.5421C9.61279 40.5194 9.30715 40.4055 9.04888 40.2134C8.79061 40.0212 8.59009 39.7585 8.47012 39.4552C8.35015 39.1519 8.31556 38.8201 8.37029 38.4976L10.2603 27.1463C10.3082 26.8696 10.2879 26.5851 10.2014 26.3185C10.1148 26.052 9.96463 25.8119 9.76456 25.6201L1.83268 17.7664C1.59802 17.5378 1.43299 17.2442 1.35758 16.9213C1.28218 16.5984 1.29964 16.2599 1.40785 15.947C1.51606 15.6341 1.71037 15.36 1.96724 15.1581C2.22412 14.9562 2.53254 14.835 2.85515 14.8093L13.7305 13.1559C14.005 13.1247 14.2668 13.0202 14.4897 12.8529C14.7125 12.6855 14.8888 12.4611 15.0008 12.202L19.9273 1.99543C20.0614 1.69816 20.2757 1.44648 20.5447 1.2701C20.8137 1.09372 21.1263 1 21.4455 1C21.7647 1 22.0773 1.09372 22.3463 1.2701C22.6153 1.44648 22.8296 1.69816 22.9637 1.99543Z" fill="#F7510A" stroke="#A4243B" stroke-linecap="round" stroke-linejoin="round"/>
</svg>
