<svg width="42" height="42" viewBox="0 0 42 42" fill="none" xmlns="http://www.w3.org/2000/svg">
<path d="M22.3079 1.99543L27.2344 12.202C27.3464 12.4611 27.5227 12.6855 27.7456 12.8529C27.9685 13.0202 28.2302 13.1247 28.5047 13.1559L39.3801 14.8093C39.695 14.8509 39.9919 14.9835 40.236 15.1917C40.4802 15.3999 40.6617 15.6751 40.7591 15.9852C40.8566 16.2953 40.8661 16.6274 40.7865 16.9428C40.7069 17.2582 40.5415 17.5438 40.3096 17.7664L32.4707 25.7472C32.2706 25.9391 32.1205 26.1792 32.0339 26.4457C31.9473 26.7123 31.927 26.9968 31.9749 27.2735L33.865 38.4976C33.9197 38.8201 33.8851 39.1519 33.7651 39.4552C33.6452 39.7585 33.4446 40.0212 33.1864 40.2134C32.9281 40.4055 32.6224 40.5194 32.3042 40.5421C31.986 40.5648 31.6679 40.4954 31.3862 40.3417L21.5953 35.0318C21.3446 34.9055 21.069 34.8398 20.7897 34.8398C20.5104 34.8398 20.2349 34.9055 19.9842 35.0318L10.1932 40.3417C9.91156 40.4954 9.5935 40.5648 9.27527 40.5421C8.95703 40.5194 8.65139 40.4055 8.39312 40.2134C8.13485 40.0212 7.93432 39.7585 7.81436 39.4552C7.69439 39.1519 7.6598 38.8201 7.71452 38.4976L9.60454 27.1463C9.65244 26.8696 9.63218 26.5851 9.5456 26.3185C9.45902 26.052 9.30887 25.8119 9.1088 25.6201L1.17692 17.7664C0.942253 17.5378 0.777225 17.2442 0.701823 16.9213C0.626421 16.5984 0.643881 16.2599 0.752088 15.947C0.860295 15.6341 1.05461 15.36 1.31148 15.1581C1.56836 14.9562 1.87678 14.835 2.19939 14.8093L13.0747 13.1559C13.3493 13.1247 13.611 13.0202 13.8339 12.8529C14.0568 12.6855 14.233 12.4611 14.3451 12.202L19.2715 1.99543C19.4057 1.69816 19.6199 1.44648 19.8889 1.2701C20.1579 1.09372 20.4705 1 20.7897 1C21.109 1 21.4215 1.09372 21.6906 1.2701C21.9596 1.44648 22.1738 1.69816 22.3079 1.99543Z" fill="#F7510A" stroke="#A4243B" stroke-linecap="round" stroke-linejoin="round"/>
</svg>
