<svg width="261" height="40" viewBox="0 0 261 40" fill="none" xmlns="http://www.w3.org/2000/svg">
<path d="M22.6522 1.96149L27.5786 11.8201C27.6907 12.0703 27.8669 12.2871 28.0898 12.4487C28.3127 12.6104 28.5745 12.7113 28.849 12.7415L39.7243 14.3385C40.0392 14.3786 40.3361 14.5067 40.5803 14.7078C40.8245 14.9089 41.0059 15.1748 41.1034 15.4743C41.2008 15.7738 41.2103 16.0946 41.1307 16.3992C41.0511 16.7039 40.8857 16.9798 40.6538 17.1947L32.8149 24.9035C32.6149 25.0887 32.4647 25.3207 32.3781 25.5781C32.2915 25.8356 32.2713 26.1104 32.3192 26.3776L34.2092 37.219C34.2639 37.5306 34.2293 37.851 34.1094 38.144C33.9894 38.437 33.7889 38.6908 33.5306 38.8764C33.2723 39.062 32.9667 39.172 32.6484 39.1939C32.3302 39.2158 32.0122 39.1488 31.7305 39.0003L21.9396 33.8714C21.6888 33.7494 21.4133 33.686 21.134 33.686C20.8547 33.686 20.5791 33.7494 20.3284 33.8714L10.5375 39.0003C10.2558 39.1488 9.93774 39.2158 9.6195 39.1939C9.30127 39.172 8.99563 39.062 8.73736 38.8764C8.47909 38.6908 8.27856 38.437 8.1586 38.144C8.03863 37.851 8.00404 37.5306 8.05876 37.219L9.94878 26.2548C9.99668 25.9876 9.97642 25.7127 9.88984 25.4553C9.80326 25.1978 9.6531 24.9659 9.45304 24.7806L1.52116 17.1947C1.28649 16.9739 1.12146 16.6903 1.04606 16.3784C0.970659 16.0665 0.988119 15.7396 1.09633 15.4374C1.20453 15.1351 1.39884 14.8704 1.65572 14.6754C1.9126 14.4803 2.22102 14.3633 2.54363 14.3385L13.419 12.7415C13.6935 12.7113 13.9552 12.6104 14.1781 12.4487C14.401 12.2871 14.5773 12.0703 14.6893 11.8201L19.6158 1.96149C19.7499 1.67435 19.9642 1.43126 20.2332 1.26089C20.5022 1.09053 20.8147 1 21.134 1C21.4532 1 21.7658 1.09053 22.0348 1.26089C22.3038 1.43126 22.518 1.67435 22.6522 1.96149Z" fill="#F7510A" stroke="#A4243B" stroke-linecap="round" stroke-linejoin="round"/>
<path d="M77.3079 1.96149L82.2344 11.8201C82.3464 12.0703 82.5227 12.2871 82.7456 12.4487C82.9685 12.6104 83.2302 12.7113 83.5047 12.7415L94.3801 14.3385C94.695 14.3786 94.9919 14.5067 95.236 14.7078C95.4802 14.9089 95.6617 15.1748 95.7591 15.4743C95.8566 15.7738 95.8661 16.0946 95.7865 16.3992C95.7069 16.7039 95.5415 16.9798 95.3096 17.1947L87.4707 24.9035C87.2706 25.0887 87.1205 25.3207 87.0339 25.5781C86.9473 25.8356 86.927 26.1104 86.9749 26.3776L88.865 37.219C88.9197 37.5306 88.8851 37.851 88.7651 38.144C88.6452 38.437 88.4446 38.6908 88.1864 38.8764C87.9281 39.062 87.6224 39.172 87.3042 39.1939C86.986 39.2158 86.6679 39.1488 86.3862 39.0003L76.5953 33.8714C76.3446 33.7494 76.069 33.686 75.7897 33.686C75.5104 33.686 75.2349 33.7494 74.9842 33.8714L65.1932 39.0003C64.9116 39.1488 64.5935 39.2158 64.2753 39.1939C63.957 39.172 63.6514 39.062 63.3931 38.8764C63.1348 38.6908 62.9343 38.437 62.8144 38.144C62.6944 37.851 62.6598 37.5306 62.7145 37.219L64.6045 26.2548C64.6524 25.9876 64.6322 25.7127 64.5456 25.4553C64.459 25.1978 64.3089 24.9659 64.1088 24.7806L56.1769 17.1947C55.9423 16.9739 55.7772 16.6903 55.7018 16.3784C55.6264 16.0665 55.6439 15.7396 55.7521 15.4374C55.8603 15.1351 56.0546 14.8704 56.3115 14.6754C56.5684 14.4803 56.8768 14.3633 57.1994 14.3385L68.0747 12.7415C68.3493 12.7113 68.611 12.6104 68.8339 12.4487C69.0568 12.2871 69.233 12.0703 69.3451 11.8201L74.2715 1.96149C74.4057 1.67435 74.6199 1.43126 74.8889 1.26089C75.1579 1.09053 75.4705 1 75.7897 1C76.109 1 76.4215 1.09053 76.6906 1.26089C76.9596 1.43126 77.1738 1.67435 77.3079 1.96149Z" fill="#F7510A" stroke="#A4243B" stroke-linecap="round" stroke-linejoin="round"/>
<path d="M131.964 1.96149L136.89 11.8201C137.002 12.0703 137.178 12.2871 137.401 12.4487C137.624 12.6104 137.886 12.7113 138.16 12.7415L149.036 14.3385C149.351 14.3786 149.648 14.5067 149.892 14.7078C150.136 14.9089 150.317 15.1748 150.415 15.4743C150.512 15.7738 150.522 16.0946 150.442 16.3992C150.363 16.7039 150.197 16.9798 149.965 17.1947L142.126 24.9035C141.926 25.0887 141.776 25.3207 141.69 25.5781C141.603 25.8356 141.583 26.1104 141.631 26.3776L143.521 37.219C143.575 37.5306 143.541 37.851 143.421 38.144C143.301 38.437 143.1 38.6908 142.842 38.8764C142.584 39.062 142.278 39.172 141.96 39.1939C141.642 39.2158 141.324 39.1488 141.042 39.0003L131.251 33.8714C131 33.7494 130.725 33.686 130.446 33.686C130.166 33.686 129.891 33.7494 129.64 33.8714L119.849 39.0003C119.567 39.1488 119.249 39.2158 118.931 39.1939C118.613 39.172 118.307 39.062 118.049 38.8764C117.791 38.6908 117.59 38.437 117.47 38.144C117.35 37.851 117.316 37.5306 117.37 37.219L119.26 26.2548C119.308 25.9876 119.288 25.7127 119.201 25.4553C119.115 25.1978 118.965 24.9659 118.765 24.7806L110.833 17.1947C110.598 16.9739 110.433 16.6903 110.358 16.3784C110.282 16.0665 110.3 15.7396 110.408 15.4374C110.516 15.1351 110.71 14.8704 110.967 14.6754C111.224 14.4803 111.533 14.3633 111.855 14.3385L122.731 12.7415C123.005 12.7113 123.267 12.6104 123.49 12.4487C123.713 12.2871 123.889 12.0703 124.001 11.8201L128.927 1.96149C129.061 1.67435 129.276 1.43126 129.545 1.26089C129.814 1.09053 130.126 1 130.446 1C130.765 1 131.077 1.09053 131.346 1.26089C131.615 1.43126 131.83 1.67435 131.964 1.96149Z" fill="#F7510A" stroke="#A4243B" stroke-linecap="round" stroke-linejoin="round"/>
<path d="M241.275 1.96149L246.201 11.8201C246.313 12.0703 246.489 12.2871 246.712 12.4487C246.935 12.6104 247.197 12.7113 247.472 12.7415L258.347 14.3385C258.662 14.3786 258.959 14.5067 259.203 14.7078C259.447 14.9089 259.628 15.1748 259.726 15.4743C259.823 15.7738 259.833 16.0946 259.753 16.3992C259.674 16.7039 259.508 16.9798 259.276 17.1947L251.437 24.9035C251.237 25.0887 251.087 25.3207 251.001 25.5781C250.914 25.8356 250.894 26.1104 250.942 26.3776L252.832 37.219C252.886 37.5306 252.852 37.851 252.732 38.144C252.612 38.437 252.411 38.6908 252.153 38.8764C251.895 39.062 251.589 39.172 251.271 39.1939C250.953 39.2158 250.635 39.1488 250.353 39.0003L240.562 33.8714C240.311 33.7494 240.036 33.686 239.757 33.686C239.477 33.686 239.202 33.7494 238.951 33.8714L229.16 39.0003C228.878 39.1488 228.56 39.2158 228.242 39.1939C227.924 39.172 227.618 39.062 227.36 38.8764C227.102 38.6908 226.901 38.437 226.781 38.144C226.661 37.851 226.627 37.5306 226.681 37.219L228.571 26.2548C228.619 25.9876 228.599 25.7127 228.512 25.4553C228.426 25.1978 228.276 24.9659 228.076 24.7806L220.144 17.1947C219.909 16.9739 219.744 16.6903 219.669 16.3784C219.593 16.0665 219.611 15.7396 219.719 15.4374C219.827 15.1351 220.021 14.8704 220.278 14.6754C220.535 14.4803 220.844 14.3633 221.166 14.3385L232.042 12.7415C232.316 12.7113 232.578 12.6104 232.801 12.4487C233.024 12.2871 233.2 12.0703 233.312 11.8201L238.238 1.96149C238.372 1.67435 238.587 1.43126 238.856 1.26089C239.125 1.09053 239.437 1 239.757 1C240.076 1 240.388 1.09053 240.657 1.26089C240.926 1.43126 241.141 1.67435 241.275 1.96149Z" fill="white" stroke="#A4243B" stroke-linecap="round" stroke-linejoin="round"/>
<path d="M186.619 1.96149L191.545 11.8201C191.657 12.0703 191.834 12.2871 192.057 12.4487C192.28 12.6104 192.541 12.7113 192.816 12.7415L203.691 14.3385C204.006 14.3786 204.303 14.5067 204.547 14.7078C204.791 14.9089 204.973 15.1748 205.07 15.4743C205.168 15.7738 205.177 16.0946 205.098 16.3992C205.018 16.7039 204.853 16.9798 204.621 17.1947L196.782 24.9035C196.582 25.0887 196.431 25.3207 196.345 25.5781C196.258 25.8356 196.238 26.1104 196.286 26.3776L198.176 37.219C198.231 37.5306 198.196 37.851 198.076 38.144C197.956 38.437 197.756 38.6908 197.497 38.8764C197.239 39.062 196.933 39.172 196.615 39.1939C196.297 39.2158 195.979 39.1488 195.697 39.0003L185.906 33.8714C185.656 33.7494 185.38 33.686 185.101 33.686C184.821 33.686 184.546 33.7494 184.295 33.8714L174.504 39.0003C174.223 39.1488 173.905 39.2158 173.586 39.1939C173.268 39.172 172.962 39.062 172.704 38.8764C172.446 38.6908 172.245 38.437 172.125 38.144C172.005 37.851 171.971 37.5306 172.026 37.219L173.916 26.2548C173.963 25.9876 173.943 25.7127 173.857 25.4553C173.77 25.1978 173.62 24.9659 173.42 24.7806L165.488 17.1947C165.253 16.9739 165.088 16.6903 165.013 16.3784C164.937 16.0665 164.955 15.7396 165.063 15.4374C165.171 15.1351 165.366 14.8704 165.623 14.6754C165.879 14.4803 166.188 14.3633 166.51 14.3385L177.386 12.7415C177.66 12.7113 177.922 12.6104 178.145 12.4487C178.368 12.2871 178.544 12.0703 178.656 11.8201L183.583 1.96149C183.717 1.67435 183.931 1.43126 184.2 1.26089C184.469 1.09053 184.782 1 185.101 1C185.42 1 185.733 1.09053 186.002 1.26089C186.271 1.43126 186.485 1.67435 186.619 1.96149Z" fill="white" stroke="#A4243B" stroke-linecap="round" stroke-linejoin="round"/>
</svg>
