<svg width="260" height="44" viewBox="0 0 260 44" fill="none" xmlns="http://www.w3.org/2000/svg">
<path d="M22.2069 1.71222L27.1333 12.6948C27.2454 12.9736 27.4216 13.215 27.6445 13.3951C27.8674 13.5752 28.1291 13.6876 28.4037 13.7212L39.279 15.5003C39.5939 15.545 39.8908 15.6877 40.135 15.9118C40.3792 16.1358 40.5606 16.4319 40.6581 16.7656C40.7555 17.0992 40.765 17.4566 40.6854 17.796C40.6058 18.1354 40.4404 18.4427 40.2085 18.6822L32.3696 27.2698C32.1695 27.4762 32.0194 27.7346 31.9328 28.0214C31.8462 28.3082 31.826 28.6144 31.8739 28.9121L33.7639 40.9895C33.8186 41.3365 33.784 41.6935 33.664 42.0199C33.5441 42.3463 33.3436 42.629 33.0853 42.8358C32.827 43.0425 32.5214 43.1651 32.2031 43.1895C31.8849 43.2139 31.5668 43.1392 31.2852 42.9739L21.4942 37.2602C21.2435 37.1243 20.968 37.0536 20.6887 37.0536C20.4094 37.0536 20.1338 37.1243 19.8831 37.2602L10.0922 42.9739C9.81048 43.1392 9.49243 43.2139 9.17419 43.1895C8.85595 43.1651 8.55031 43.0425 8.29204 42.8358C8.03377 42.629 7.83325 42.3463 7.71328 42.0199C7.59332 41.6935 7.55873 41.3365 7.61345 40.9895L9.50347 28.7752C9.55137 28.4775 9.53111 28.1714 9.44453 27.8845C9.35794 27.5977 9.20779 27.3394 9.00773 27.133L1.07584 18.6822C0.841179 18.4362 0.67615 18.1203 0.600749 17.7728C0.525347 17.4254 0.542807 17.0612 0.651014 16.7245C0.759221 16.3877 0.953532 16.0929 1.21041 15.8756C1.46729 15.6583 1.77571 15.528 2.09831 15.5003L12.9737 13.7212C13.2482 13.6876 13.5099 13.5752 13.7328 13.3951C13.9557 13.215 14.132 12.9736 14.244 12.6948L19.1705 1.71222C19.3046 1.39235 19.5188 1.12154 19.7879 0.93175C20.0569 0.74196 20.3694 0.641113 20.6887 0.641113C21.0079 0.641113 21.3205 0.74196 21.5895 0.93175C21.8585 1.12154 22.0727 1.39235 22.2069 1.71222Z" fill="#F7510A" stroke="#A4243B" stroke-linecap="round" stroke-linejoin="round"/>
<path d="M76.8626 1.71222L81.7891 12.6948C81.9011 12.9736 82.0774 13.215 82.3003 13.3951C82.5232 13.5752 82.7849 13.6876 83.0594 13.7212L93.9348 15.5003C94.2497 15.545 94.5465 15.6877 94.7907 15.9118C95.0349 16.1358 95.2163 16.4319 95.3138 16.7656C95.4113 17.0992 95.4208 17.4566 95.3412 17.796C95.2616 18.1354 95.0962 18.4427 94.8643 18.6822L87.0254 27.2698C86.8253 27.4762 86.6751 27.7346 86.5886 28.0214C86.502 28.3082 86.4817 28.6144 86.5296 28.9121L88.4196 40.9895C88.4744 41.3365 88.4398 41.6935 88.3198 42.0199C88.1998 42.3463 87.9993 42.629 87.741 42.8358C87.4828 43.0425 87.1771 43.1651 86.8589 43.1895C86.5407 43.2139 86.2226 43.1392 85.9409 42.9739L76.15 37.2602C75.8993 37.1243 75.6237 37.0536 75.3444 37.0536C75.0651 37.0536 74.7896 37.1243 74.5388 37.2602L64.7479 42.9739C64.4662 43.1392 64.1482 43.2139 63.83 43.1895C63.5117 43.1651 63.2061 43.0425 62.9478 42.8358C62.6895 42.629 62.489 42.3463 62.369 42.0199C62.2491 41.6935 62.2145 41.3365 62.2692 40.9895L64.1592 28.7752C64.2071 28.4775 64.1869 28.1714 64.1003 27.8845C64.0137 27.5977 63.8636 27.3394 63.6635 27.133L55.7316 18.6822C55.4969 18.4362 55.3319 18.1203 55.2565 17.7728C55.1811 17.4254 55.1986 17.0612 55.3068 16.7245C55.415 16.3877 55.6093 16.0929 55.8662 15.8756C56.123 15.6583 56.4315 15.528 56.7541 15.5003L67.6294 13.7212C67.9039 13.6876 68.1657 13.5752 68.3886 13.3951C68.6115 13.215 68.7877 12.9736 68.8998 12.6948L73.8262 1.71222C73.9604 1.39235 74.1746 1.12154 74.4436 0.93175C74.7126 0.74196 75.0252 0.641113 75.3444 0.641113C75.6637 0.641113 75.9762 0.74196 76.2452 0.93175C76.5143 1.12154 76.7285 1.39235 76.8626 1.71222Z" fill="#F7510A" stroke="#A4243B" stroke-linecap="round" stroke-linejoin="round"/>
<path d="M131.518 1.71222L136.445 12.6948C136.557 12.9736 136.733 13.215 136.956 13.3951C137.179 13.5752 137.441 13.6876 137.715 13.7212L148.591 15.5003C148.905 15.545 149.202 15.6877 149.446 15.9118C149.691 16.1358 149.872 16.4319 149.97 16.7656C150.067 17.0992 150.077 17.4566 149.997 17.796C149.917 18.1354 149.752 18.4427 149.52 18.6822L141.681 27.2698C141.481 27.4762 141.331 27.7346 141.244 28.0214C141.158 28.3082 141.137 28.6144 141.185 28.9121L143.075 40.9895C143.13 41.3365 143.096 41.6935 142.976 42.0199C142.856 42.3463 142.655 42.629 142.397 42.8358C142.139 43.0425 141.833 43.1651 141.515 43.1895C141.196 43.2139 140.878 43.1392 140.597 42.9739L130.806 37.2602C130.555 37.1243 130.279 37.0536 130 37.0536C129.721 37.0536 129.445 37.1243 129.195 37.2602L119.404 42.9739C119.122 43.1392 118.804 43.2139 118.486 43.1895C118.167 43.1651 117.862 43.0425 117.604 42.8358C117.345 42.629 117.145 42.3463 117.025 42.0199C116.905 41.6935 116.87 41.3365 116.925 40.9895L118.815 28.7752C118.863 28.4775 118.843 28.1714 118.756 27.8845C118.669 27.5977 118.519 27.3394 118.319 27.133L110.387 18.6822C110.153 18.4362 109.988 18.1203 109.912 17.7728C109.837 17.4254 109.854 17.0612 109.963 16.7245C110.071 16.3877 110.265 16.0929 110.522 15.8756C110.779 15.6583 111.087 15.528 111.41 15.5003L122.285 13.7212C122.56 13.6876 122.821 13.5752 123.044 13.3951C123.267 13.215 123.443 12.9736 123.556 12.6948L128.482 1.71222C128.616 1.39235 128.83 1.12154 129.099 0.93175C129.368 0.74196 129.681 0.641113 130 0.641113C130.319 0.641113 130.632 0.74196 130.901 0.93175C131.17 1.12154 131.384 1.39235 131.518 1.71222Z" fill="white" stroke="#A4243B" stroke-linecap="round" stroke-linejoin="round"/>
<path d="M240.829 1.71222L245.756 12.6948C245.868 12.9736 246.044 13.215 246.267 13.3951C246.49 13.5752 246.752 13.6876 247.026 13.7212L257.902 15.5003C258.216 15.545 258.513 15.6877 258.758 15.9118C259.002 16.1358 259.183 16.4319 259.281 16.7656C259.378 17.0992 259.388 17.4566 259.308 17.796C259.228 18.1354 259.063 18.4427 258.831 18.6822L250.992 27.2698C250.792 27.4762 250.642 27.7346 250.555 28.0214C250.469 28.3082 250.449 28.6144 250.496 28.9121L252.386 40.9895C252.441 41.3365 252.407 41.6935 252.287 42.0199C252.167 42.3463 251.966 42.629 251.708 42.8358C251.45 43.0425 251.144 43.1651 250.826 43.1895C250.507 43.2139 250.189 43.1392 249.908 42.9739L240.117 37.2602C239.866 37.1243 239.591 37.0536 239.311 37.0536C239.032 37.0536 238.756 37.1243 238.506 37.2602L228.715 42.9739C228.433 43.1392 228.115 43.2139 227.797 43.1895C227.479 43.1651 227.173 43.0425 226.915 42.8358C226.656 42.629 226.456 42.3463 226.336 42.0199C226.216 41.6935 226.181 41.3365 226.236 40.9895L228.126 28.7752C228.174 28.4775 228.154 28.1714 228.067 27.8845C227.981 27.5977 227.83 27.3394 227.63 27.133L219.698 18.6822C219.464 18.4362 219.299 18.1203 219.223 17.7728C219.148 17.4254 219.165 17.0612 219.274 16.7245C219.382 16.3877 219.576 16.0929 219.833 15.8756C220.09 15.6583 220.398 15.528 220.721 15.5003L231.596 13.7212C231.871 13.6876 232.132 13.5752 232.355 13.3951C232.578 13.215 232.755 12.9736 232.867 12.6948L237.793 1.71222C237.927 1.39235 238.141 1.12154 238.41 0.93175C238.679 0.74196 238.992 0.641113 239.311 0.641113C239.63 0.641113 239.943 0.74196 240.212 0.93175C240.481 1.12154 240.695 1.39235 240.829 1.71222Z" fill="white" stroke="#A4243B" stroke-linecap="round" stroke-linejoin="round"/>
<path d="M186.174 1.71222L191.1 12.6948C191.212 12.9736 191.388 13.215 191.611 13.3951C191.834 13.5752 192.096 13.6876 192.37 13.7212L203.246 15.5003C203.561 15.545 203.858 15.6877 204.102 15.9118C204.346 16.1358 204.527 16.4319 204.625 16.7656C204.722 17.0992 204.732 17.4566 204.652 17.796C204.573 18.1354 204.407 18.4427 204.175 18.6822L196.336 27.2698C196.136 27.4762 195.986 27.7346 195.9 28.0214C195.813 28.3082 195.793 28.6144 195.841 28.9121L197.731 40.9895C197.785 41.3365 197.751 41.6935 197.631 42.0199C197.511 42.3463 197.31 42.629 197.052 42.8358C196.794 43.0425 196.488 43.1651 196.17 43.1895C195.852 43.2139 195.534 43.1392 195.252 42.9739L185.461 37.2602C185.21 37.1243 184.935 37.0536 184.655 37.0536C184.376 37.0536 184.101 37.1243 183.85 37.2602L174.059 42.9739C173.777 43.1392 173.459 43.2139 173.141 43.1895C172.823 43.1651 172.517 43.0425 172.259 42.8358C172.001 42.629 171.8 42.3463 171.68 42.0199C171.56 41.6935 171.526 41.3365 171.58 40.9895L173.47 28.7752C173.518 28.4775 173.498 28.1714 173.411 27.8845C173.325 27.5977 173.175 27.3394 172.975 27.133L165.043 18.6822C164.808 18.4362 164.643 18.1203 164.568 17.7728C164.492 17.4254 164.51 17.0612 164.618 16.7245C164.726 16.3877 164.92 16.0929 165.177 15.8756C165.434 15.6583 165.743 15.528 166.065 15.5003L176.94 13.7212C177.215 13.6876 177.477 13.5752 177.7 13.3951C177.923 13.215 178.099 12.9736 178.211 12.6948L183.137 1.71222C183.271 1.39235 183.486 1.12154 183.755 0.93175C184.024 0.74196 184.336 0.641113 184.655 0.641113C184.975 0.641113 185.287 0.74196 185.556 0.93175C185.825 1.12154 186.04 1.39235 186.174 1.71222Z" fill="white" stroke="#A4243B" stroke-linecap="round" stroke-linejoin="round"/>
</svg>
