<svg width="33" height="26" viewBox="0 0 33 26" fill="none" xmlns="http://www.w3.org/2000/svg">
<path d="M15.0891 2.34921C21.8631 2.34921 27.3608 6.50921 27.3608 11.6349C27.3608 16.7606 21.8631 20.9206 15.0891 20.9206C8.3151 20.9206 2.81738 16.7606 2.81738 11.6349C2.81738 6.50921 8.3151 2.34921 15.0891 2.34921ZM15.0891 18.8571C20.3618 18.8571 24.6337 15.6247 24.6337 11.6349C24.6337 7.64516 20.3618 4.4127 15.0891 4.4127C9.81634 4.4127 5.54443 7.64516 5.54443 11.6349C5.54443 15.6247 9.81634 18.8571 15.0891 18.8571ZM26.6586 18.9304L30.516 21.8482L28.5866 23.3081L24.7305 20.3893L26.6586 18.9304Z" fill="black"/>
</svg>
