<svg width="42" height="42" viewBox="0 0 42 42" fill="none" xmlns="http://www.w3.org/2000/svg">
<path d="M22.2752 1.99543L27.2017 12.202C27.3137 12.4611 27.49 12.6855 27.7129 12.8529C27.9358 13.0202 28.1975 13.1247 28.472 13.1559L39.3474 14.8093C39.6623 14.8509 39.9591 14.9835 40.2033 15.1917C40.4475 15.3999 40.6289 15.6751 40.7264 15.9852C40.8239 16.2953 40.8334 16.6274 40.7538 16.9428C40.6742 17.2582 40.5088 17.5438 40.2769 17.7664L32.438 25.7472C32.2379 25.9391 32.0877 26.1792 32.0012 26.4457C31.9146 26.7123 31.8943 26.9968 31.9422 27.2735L33.8322 38.4976C33.887 38.8201 33.8524 39.1519 33.7324 39.4552C33.6124 39.7585 33.4119 40.0212 33.1536 40.2134C32.8954 40.4055 32.5897 40.5194 32.2715 40.5421C31.9533 40.5648 31.6352 40.4954 31.3535 40.3417L21.5626 35.0318C21.3119 34.9055 21.0363 34.8398 20.757 34.8398C20.4777 34.8398 20.2022 34.9055 19.9514 35.0318L10.1605 40.3417C9.87884 40.4954 9.56079 40.5648 9.24255 40.5421C8.92431 40.5194 8.61867 40.4055 8.3604 40.2134C8.10213 40.0212 7.90161 39.7585 7.78164 39.4552C7.66168 39.1519 7.62709 38.8201 7.68181 38.4976L9.57183 27.1463C9.61973 26.8696 9.59947 26.5851 9.51289 26.3185C9.4263 26.052 9.27615 25.8119 9.07609 25.6201L1.1442 17.7664C0.909539 17.5378 0.74451 17.2442 0.669108 16.9213C0.593706 16.5984 0.611166 16.2599 0.719373 15.947C0.82758 15.6341 1.02189 15.36 1.27877 15.1581C1.53565 14.9562 1.84407 14.835 2.16667 14.8093L13.042 13.1559C13.3165 13.1247 13.5783 13.0202 13.8012 12.8529C14.0241 12.6855 14.2003 12.4611 14.3124 12.202L19.2388 1.99543C19.373 1.69816 19.5872 1.44648 19.8562 1.2701C20.1252 1.09372 20.4378 1 20.757 1C21.0763 1 21.3888 1.09372 21.6578 1.2701C21.9268 1.44648 22.1411 1.69816 22.2752 1.99543Z" fill="#F7510A" stroke="#A4243B" stroke-linecap="round" stroke-linejoin="round"/>
</svg>
