<svg width="154" height="22" viewBox="0 0 154 22" fill="none" xmlns="http://www.w3.org/2000/svg">
<path d="M76.8468 0C72.9097 0 69.0611 0.643865 65.7875 1.85018C62.5139 3.05649 59.9625 4.77106 58.4558 6.77709C56.9492 8.78311 56.555 10.9905 57.3231 13.1201C58.0911 15.2496 59.987 17.2058 62.771 18.7411C65.5549 20.2765 69.1019 21.3221 72.9633 21.7457C76.8247 22.1693 80.8272 21.9518 84.4646 21.1209C88.102 20.29 91.2109 18.8829 93.3983 17.0775C95.5856 15.2721 96.7531 13.1496 96.7531 10.9783C96.7531 8.06667 94.6558 5.2743 90.9227 3.21547C87.1895 1.15664 82.1263 0 76.8468 0ZM76.8468 18.8199C74.0346 18.8199 71.2856 18.36 68.9473 17.4984C66.609 16.6367 64.7866 15.412 63.7104 13.9792C62.6342 12.5463 62.3526 10.9696 62.9013 9.44847C63.4499 7.92734 64.8041 6.53009 66.7926 5.43342C68.7812 4.33675 71.3147 3.5899 74.0729 3.28733C76.831 2.98476 79.69 3.14005 82.2881 3.73357C84.8862 4.32708 87.1069 5.33216 88.6693 6.62172C90.2316 7.91127 91.0656 9.42737 91.0656 10.9783C91.0656 13.058 89.5675 15.0526 86.901 16.5232C84.2345 17.9938 80.6179 18.8199 76.8468 18.8199ZM19.9718 0C16.0347 0 12.1861 0.643865 8.91249 1.85018C5.63893 3.05649 3.08749 4.77106 1.58083 6.77709C0.0741768 8.78311 -0.320033 10.9905 0.448054 13.1201C1.21614 15.2496 3.11203 17.2058 5.89597 18.7411C8.67991 20.2765 12.2269 21.3221 16.0883 21.7457C19.9497 22.1693 23.9522 21.9518 27.5896 21.1209C31.227 20.29 34.3359 18.8829 36.5233 17.0775C38.7106 15.2721 39.8781 13.1496 39.8781 10.9783C39.8781 8.06667 37.7808 5.2743 34.0477 3.21547C30.3145 1.15664 25.2513 0 19.9718 0ZM19.9718 18.8199C17.1596 18.8199 14.4106 18.36 12.0723 17.4984C9.73404 16.6367 7.91158 15.412 6.8354 13.9792C5.75922 12.5463 5.47764 10.9696 6.02627 9.44847C6.5749 7.92734 7.92911 6.53009 9.91764 5.43342C11.9062 4.33675 14.4397 3.5899 17.1979 3.28733C19.956 2.98476 22.815 3.14005 25.4131 3.73357C28.0112 4.32708 30.2319 5.33216 31.7943 6.62172C33.3566 7.91127 34.1906 9.42737 34.1906 10.9783C34.1906 13.058 32.6925 15.0526 30.026 16.5232C27.3595 17.9938 23.7429 18.8199 19.9718 18.8199ZM133.722 0C129.785 0 125.936 0.643865 122.662 1.85018C119.389 3.05649 116.837 4.77106 115.331 6.77709C113.824 8.78311 113.43 10.9905 114.198 13.1201C114.966 15.2496 116.862 17.2058 119.646 18.7411C122.43 20.2765 125.977 21.3221 129.838 21.7457C133.7 22.1693 137.702 21.9518 141.34 21.1209C144.977 20.29 148.086 18.8829 150.273 17.0775C152.461 15.2721 153.628 13.1496 153.628 10.9783C153.628 9.53661 153.113 8.10904 152.113 6.77709C151.112 5.44514 149.646 4.2349 147.798 3.21547C145.949 2.19604 143.755 1.38738 141.34 0.835672C138.924 0.283961 136.336 0 133.722 0ZM133.722 18.8199C130.91 18.8199 128.161 18.36 125.822 17.4984C123.484 16.6367 121.662 15.412 120.585 13.9792C119.509 12.5463 119.228 10.9696 119.776 9.44847C120.325 7.92734 121.679 6.53009 123.668 5.43342C125.656 4.33675 128.19 3.5899 130.948 3.28733C133.706 2.98476 136.565 3.14005 139.163 3.73357C141.761 4.32708 143.982 5.33216 145.544 6.62172C147.107 7.91127 147.941 9.42737 147.941 10.9783C147.941 13.058 146.443 15.0526 143.776 16.5232C141.109 17.9938 137.493 18.8199 133.722 18.8199Z" fill="black"/>
</svg>
